<svg width="502" height="422" viewBox="0 0 502 422" fill="none" xmlns="http://www.w3.org/2000/svg">
<path opacity="0.37" d="M89.8392 332.073C90.6885 334.114 91.6273 336.154 92.6554 338.108C107.943 367.24 138.966 385.604 172.046 388.904C198.509 391.509 224.257 383.13 246.385 369.454C268.467 355.821 286.169 336.632 310.71 326.646C345.309 312.623 383.887 301.552 411.021 271.856C441.865 238.122 453.756 186.978 439.228 143.823C425.102 101.71 378.21 88.0771 341.778 69.5387C276.29 36.152 185.59 13.9666 117.42 53.171C35.7502 100.103 50.5911 206.645 76.4734 280.582C82.374 297.427 83.0893 315.575 89.8392 332.073Z" fill="#CCE9FF"/>
<path d="M131.501 132.448L131.367 131.623H130.518C113.978 131.623 108.614 126.457 108.569 126.413L107.854 125.632L107.139 126.413C107.094 126.457 101.775 131.623 85.1904 131.623H84.3411L84.207 132.448C84.1623 132.708 80.6755 158.584 107.407 171.869L107.854 172.086L108.301 171.869C135.122 158.584 131.501 132.708 131.501 132.448ZM127.478 148.468C124.17 157.759 117.554 164.966 107.809 169.916C98.0645 164.966 91.4487 157.759 88.1407 148.468C85.7268 141.652 85.8609 135.704 86.0397 133.577C99.8079 133.403 105.932 129.843 107.809 128.367C109.687 129.8 115.811 133.403 129.579 133.577C129.758 135.747 129.892 141.652 127.478 148.468ZM157.741 99.1915L156.803 96.8036C155.953 96.7168 155.149 96.4997 154.344 96.2392L152.422 97.9758L146.879 94.1119L147.952 91.7674C147.415 91.1162 146.968 90.4215 146.611 89.6835L143.973 89.5966L142.856 83.0409L145.314 82.1291C145.404 81.3042 145.627 80.5228 145.895 79.7413L144.107 77.8744L148.086 72.4474L150.5 73.4894C151.17 72.9684 151.885 72.5343 152.645 72.187L152.735 69.6254L159.485 68.54L160.423 70.9279C161.273 71.0147 162.077 71.2318 162.882 71.4923L164.804 69.7557L170.347 73.6197L169.274 75.9641C169.811 76.6154 170.258 77.31 170.615 78.0481L173.253 78.1349L174.37 84.6907L171.912 85.6024C171.778 86.4273 171.599 87.2088 171.331 87.9902L173.119 89.8571L169.14 95.2841L166.726 94.2421C166.056 94.7631 165.341 95.1972 164.581 95.5446L164.491 98.1061L157.741 99.1915ZM153.897 94.1553L154.433 94.3723C155.417 94.7631 156.49 94.9802 157.562 95.067L158.144 95.1104L158.948 97.151L162.658 96.5431L162.748 94.3723L163.284 94.1553C164.268 93.7211 165.162 93.1567 166.011 92.5055L166.458 92.1582L168.514 93.0699L170.705 90.1176L169.14 88.5112L169.364 87.9902C169.766 87.0351 169.99 85.9931 170.079 84.9512L170.124 84.3867L172.225 83.6053L171.599 80.0018L169.364 79.9149L169.14 79.3939C168.693 78.4388 168.112 77.5705 167.442 76.7456L167.084 76.3114L168.023 74.3143L164.983 72.187L163.329 73.6631L162.793 73.446C161.809 73.0553 160.736 72.8382 159.663 72.7514L159.082 72.7079L158.278 70.6674L154.567 71.2752L154.478 73.446L153.942 73.6631C152.958 74.0972 152.064 74.6616 151.215 75.3129L150.768 75.6602L148.712 74.7485L146.521 77.7007L148.086 79.3071L147.862 79.8281C147.46 80.7833 147.236 81.8252 147.147 82.8672L147.102 83.4316L145.001 84.2131L145.627 87.8166L147.862 87.9034L148.086 88.4244C148.533 89.3795 149.114 90.2479 149.784 91.0728L150.142 91.5069L149.203 93.504L152.243 95.6314L153.897 94.1553ZM158.546 91.1162C157.026 91.1162 155.506 90.6386 154.255 89.7703C150.902 87.4693 150.142 82.954 152.511 79.6979C154.88 76.4417 159.529 75.7036 162.882 78.0047C164.491 79.1335 165.564 80.7833 165.922 82.6935C166.235 84.6038 165.788 86.5141 164.67 88.0771C163.508 89.64 161.809 90.682 159.842 91.0293C159.351 91.0728 158.948 91.1162 158.546 91.1162ZM158.546 78.4822C156.803 78.4822 155.104 79.2637 154.031 80.7398C153.182 81.9121 152.824 83.3448 153.092 84.7775C153.36 86.2102 154.12 87.4258 155.327 88.2507C156.534 89.0756 158.009 89.423 159.485 89.1625C160.96 88.902 162.211 88.1639 163.061 86.9917C163.91 85.8195 164.268 84.3867 163.999 82.954C163.731 81.5213 162.971 80.3057 161.764 79.4808C160.781 78.8295 159.663 78.4822 158.546 78.4822ZM372.041 169.959L369.94 164.619C367.705 164.358 365.47 163.881 363.369 163.143L359.078 167.05L347.455 159.018L349.869 153.808C348.483 152.115 347.276 150.248 346.293 148.251L340.437 148.077L338.068 134.402L343.566 132.361C343.834 130.19 344.326 128.019 345.086 125.979L341.063 121.811L349.333 110.523L354.697 112.867C356.44 111.522 358.362 110.349 360.419 109.394L360.598 103.707L374.679 101.406L376.78 106.746C379.015 107.006 381.25 107.484 383.351 108.222L387.642 104.315L399.264 112.346L396.851 117.556C398.236 119.25 399.443 121.116 400.427 123.113L406.283 123.287L408.652 136.963L403.154 139.004C402.885 141.174 402.394 143.345 401.634 145.386L405.657 149.554L397.387 160.842L392.023 158.497C390.279 159.843 388.357 161.015 386.301 161.97L386.122 167.658L372.041 169.959ZM362.743 160.364L363.458 160.625C365.828 161.493 368.331 162.057 370.879 162.274L371.684 162.361L373.606 167.224L383.619 165.574L383.798 160.364L384.513 160.06C386.837 159.062 389.028 157.716 390.995 156.109L391.576 155.632L396.493 157.759L402.394 149.727L398.728 145.907L398.996 145.212C399.89 142.911 400.471 140.48 400.695 138.005L400.74 137.224L405.746 135.357L404.048 125.632L398.683 125.458L398.37 124.763C397.342 122.506 395.957 120.378 394.303 118.468L393.811 117.904L396.001 113.128L387.731 107.397L383.798 110.957L383.082 110.697C380.713 109.828 378.21 109.264 375.662 109.047L374.857 109.003L372.935 104.141L362.922 105.791L362.743 111.001L362.028 111.304C359.703 112.303 357.513 113.649 355.546 115.255L354.965 115.733L350.048 113.605L344.237 121.637L347.902 125.458L347.634 126.153C346.74 128.454 346.159 130.885 345.935 133.36L345.891 134.141L340.884 136.008L342.583 145.733L347.947 145.907L348.26 146.601C349.288 148.859 350.674 150.986 352.328 152.897L352.819 153.461L350.629 158.237L358.899 163.968L362.743 160.364ZM373.293 151.421C370.03 151.421 366.766 150.465 363.905 148.512C356.619 143.475 354.92 133.62 360.106 126.543C365.291 119.467 375.438 117.817 382.725 122.853C390.011 127.889 391.71 137.745 386.524 144.821C383.351 149.119 378.344 151.421 373.293 151.421ZM373.337 122.375C369.046 122.375 364.799 124.329 362.162 127.976C360.016 130.885 359.212 134.402 359.793 137.918C360.419 141.435 362.386 144.474 365.381 146.558C371.549 150.813 380.132 149.423 384.513 143.432C386.614 140.523 387.463 137.007 386.882 133.49C386.256 129.973 384.289 126.934 381.294 124.85C378.836 123.157 376.064 122.375 373.337 122.375ZM154.389 267.644C152.243 261.783 149.784 255.184 152.511 248.411C156.177 239.294 148.399 234.605 141.559 230.394C135.659 226.833 130.116 223.447 131.993 217.846C134.049 211.768 133.915 207.079 131.591 203.997C129.624 201.392 126.137 200.003 121.488 200.046C117.778 200.089 114.47 195.661 110.939 191.016C106.781 185.545 102.535 179.901 97.1705 181.16C96.2317 181.377 95.4718 181.898 95.0248 182.723C93.1473 186.153 96.0976 194.315 99.2714 202.998C102.669 212.376 106.558 222.969 104.01 227.485C101.238 232.434 106.245 236.949 111.564 241.768C117.197 246.848 123.589 252.622 121.891 259.873C120.281 266.646 119.924 269.164 120.907 270.64C121.667 271.812 123.232 272.073 125.601 272.507C127.21 272.811 129.266 273.158 131.77 273.939C142.543 277.196 145.672 283.968 145.716 284.055L145.851 284.359L146.164 284.316C151.349 283.534 154.389 282.102 155.819 279.801C155.908 279.67 155.953 279.54 156.043 279.41C157.562 276.327 156.087 272.29 154.389 267.644Z" fill="#F4483A"/>
<path d="M126.854 254.707C128.642 257.399 129.938 259.743 129.804 263.043C129.715 266.125 129.223 269.165 128.955 272.204C128.91 272.855 128.865 273.463 128.821 274.071C127.927 273.332 127.077 272.594 126.183 271.856C125.781 271.813 125.379 271.813 124.932 271.813C126.183 272.811 127.48 273.897 128.731 274.982C128.597 277.11 128.552 279.237 128.552 281.364C128.552 282.623 128.508 283.969 128.597 285.228C127.435 284.534 126.228 283.839 125.11 283.144C121.624 281.06 118.36 279.107 115.857 278.065C113.935 277.283 111.789 276.589 109.733 275.937C104.369 274.244 98.8705 272.508 97.0377 268.817C96.099 266.907 96.1884 264.606 97.3059 261.827C100.122 254.664 97.4847 253.448 93.0592 251.364C89.8407 249.845 85.46 247.804 81.0792 242.638C79.157 240.38 77.4584 238.426 75.9385 236.733C71.4236 231.567 68.9203 228.745 69.2332 227.095C69.3227 226.704 69.5462 226.357 69.9932 226.009C70.2167 225.836 70.4849 225.662 70.8425 225.488C72.5412 224.577 74.2398 225.271 76.162 226.053C78.7547 227.095 81.9285 228.441 86.354 226.226C89.8407 224.49 93.7298 222.883 96.0543 224.186C97.6635 225.054 98.6023 227.312 98.9152 231.002C99.0046 232.174 99.4069 232.999 100.077 233.477C101.061 234.172 102.581 234.085 104.324 233.737C105.531 235.344 107.096 236.125 108.973 236.776C111.61 237.688 113.577 238.513 115.499 240.597C119.612 245.112 123.591 249.714 126.854 254.707Z" fill="#0E538C"/>
<path d="M112.594 261.87C109.912 260.134 107.588 255.922 105.352 251.841C102.313 246.284 99.1389 240.553 94.8028 240.683C87.8294 240.857 81.6158 232.869 81.5264 232.825L80.9453 233.259C81.2135 233.607 87.4718 241.595 94.8028 241.422C98.6919 241.335 101.776 246.848 104.682 252.232C106.962 256.356 109.331 260.655 112.147 262.522C113.846 263.607 116.975 265.821 120.685 268.643V267.731C117.422 265.083 114.516 263.086 112.594 261.87Z" fill="white"/>
<path d="M348.169 315.662C348.169 315.662 352.192 305.937 344.861 292.131C337.485 278.325 331.54 280.452 349.287 269.815C367.033 259.178 349.376 225.748 364.485 221.494C379.594 217.239 392.692 163.1 404.18 170.003C415.669 176.906 400.336 203.433 408.561 211.421C416.742 219.41 417.859 229.526 400.917 237.731C383.975 245.937 412.942 277.283 389.965 286.834C366.989 296.386 373.604 333.853 348.169 315.662Z" fill="#0E538C"/>
<path d="M355.19 325.952C355.145 325.822 352.686 313.405 360.509 297.341C368.466 280.974 372.266 263.086 370.701 249.454C369.852 242.073 374.724 239.208 379.418 236.429C384.067 233.694 388.85 230.828 388.582 223.578C388.358 217.022 391.219 201.653 391.309 201.002L392.337 201.176C392.292 201.349 389.387 217.109 389.61 223.535C389.878 231.393 384.827 234.389 379.954 237.254C375.306 239.989 370.969 242.594 371.729 249.324C373.339 263.086 369.494 281.191 361.448 297.732C353.804 313.492 356.173 325.605 356.218 325.735L355.19 325.952Z" fill="white"/>
<path d="M416.206 245.286C422.599 242.334 429.393 243.679 425.862 249.888C422.33 256.096 417.056 256.574 418.039 261.48C419.023 266.386 421.615 271.726 413.301 274.852C404.986 277.934 401.097 277.413 396.046 286.487C390.95 295.561 389.206 302.291 380.49 300.12C371.773 297.906 379.015 286.748 383.529 282.059C383.529 282.059 389.654 277.023 389.564 267.949C389.475 258.875 385.63 252.797 397.7 253.405C409.769 253.926 411.87 247.283 416.206 245.286Z" fill="#0E538C"/>
<path d="M379.104 306.458C379.461 305.286 387.865 277.196 394.749 274.157C401.767 271.031 405.567 262.869 407.221 258.31C409.367 252.362 418.531 251.19 418.888 251.147L419.022 252.145C418.933 252.145 410.127 253.274 408.204 258.614C406.148 264.389 402.214 271.943 395.196 275.069C388.759 277.934 380.221 306.458 380.132 306.762L379.104 306.458ZM157.696 283.839C143.928 280.496 143.749 273.289 143.57 266.342C143.436 260.655 143.302 255.271 135.837 251.972C125.958 247.587 125.734 239.468 125.511 232.304C125.332 226.964 125.198 221.928 121.085 219.193C111.206 212.637 102.847 196.747 102.758 196.573L103.518 196.183C103.607 196.356 111.832 212.029 121.577 218.498C126.047 221.451 126.226 226.704 126.36 232.261C126.584 239.511 126.807 247.066 136.195 251.19C144.107 254.707 144.286 260.611 144.42 266.299C144.599 273.245 144.777 279.845 157.92 283.014L157.696 283.839Z" fill="white"/>
<path d="M139.145 277.413H365.29V118.859C365.29 116.601 363.413 114.734 361.044 114.734H143.391C141.067 114.734 139.145 116.558 139.145 118.859V277.413Z" fill="#F7F7F7"/>
<path d="M356.875 247.854L147.135 247.854L147.135 122.686L356.875 122.686V247.854Z" fill="#6695FF" stroke="white" stroke-width="0.5" stroke-miterlimit="10"/>
<path d="M365.29 253.925H139.233L114.469 343.752H390.01L365.29 253.925Z" fill="#F2F2F2"/>
<path d="M147.773 269.685H161.675C162.257 269.685 162.704 270.119 162.569 270.597L161.228 276.458C161.139 276.805 160.781 277.066 160.334 277.066H146.209C145.627 277.066 145.18 276.632 145.315 276.111L146.879 270.249C146.969 269.946 147.326 269.685 147.773 269.685ZM168.023 269.685H178.528L177.142 277.109H166.414L168.023 269.685ZM183.758 269.685H194.263L193.19 277.109H182.462L183.758 269.685ZM199.538 269.685H210.043L209.238 277.109H198.51L199.538 269.685ZM215.273 269.685H225.778L225.286 277.109H214.557L215.273 269.685ZM231.008 269.685H241.513L241.334 277.109H230.605L231.008 269.685ZM357.066 269.685H341.287L342.985 277.109H359.033L357.066 269.685ZM336.057 269.685H325.552L326.938 277.109H337.666L336.057 269.685ZM320.322 269.685H309.817L310.89 277.109H321.618L320.322 269.685ZM304.542 269.685H294.037L294.842 277.109H305.57L304.542 269.685ZM288.807 269.685H278.302L278.794 277.109H289.522L288.807 269.685ZM273.072 269.685H262.567L262.746 277.109H273.474L273.072 269.685ZM246.787 269.685H257.292L257.426 277.109H246.787V269.685ZM143.169 282.623H165.073L163.821 290.264H141.47L143.169 282.623ZM360.464 282.623H333.375L334.894 290.264H362.565L360.464 282.623ZM327.921 282.623H317.103L318.31 290.264H329.396L327.921 282.623ZM311.65 282.623H300.832L301.726 290.264H312.812L311.65 282.623ZM295.378 282.623H284.56L285.186 290.264H296.227L295.378 282.623ZM279.107 282.623H268.289L268.602 290.264H279.643L279.107 282.623ZM139.861 296.212H162.301L160.647 303.81H137.805L139.861 296.212ZM167.889 296.212H179.109L177.813 303.81H166.369L167.889 296.212ZM184.741 296.212H268.825L269.138 303.81H183.49L184.741 296.212ZM274.458 296.212H285.678L286.304 303.81H274.86L274.458 296.212ZM291.266 296.212H302.486L303.424 303.81H291.981L291.266 296.212ZM308.118 296.212H319.338L320.545 303.81H309.146L308.118 296.212ZM324.926 296.212H336.146L337.666 303.81H326.267L324.926 296.212ZM341.734 296.212H364.174L366.23 303.81H343.388L341.734 296.212ZM262.88 282.623H252.107V290.264H263.059L262.88 282.623ZM246.609 282.623H235.746L235.433 290.264H246.519L246.609 282.623ZM230.337 282.623H219.475L218.849 290.264H229.935L230.337 282.623ZM214.066 282.623H203.203L202.265 290.264H213.351L214.066 282.623ZM197.794 282.623H186.932L185.68 290.264H196.766L197.794 282.623ZM181.523 282.623H170.66L169.141 290.264H180.182L181.523 282.623ZM148.265 265.04L150.053 258.44H155.149L153.495 265.04H148.265ZM160.245 258.44H170.437L169.051 265.04H158.636L160.245 258.44ZM175.578 258.44H185.77L184.607 265.04H174.237L175.578 258.44ZM190.866 258.44H201.058L200.164 265.04H189.793L190.866 258.44ZM206.154 258.44H216.346L215.72 265.04H205.349L206.154 258.44ZM221.442 258.44H231.634L231.276 265.04H220.905L221.442 258.44ZM236.73 258.44H246.922L246.832 265.04H236.461L236.73 258.44ZM252.018 258.44H262.209L262.388 265.04H252.018V258.44ZM267.305 258.44H277.497L277.944 265.04H267.574L267.305 258.44ZM282.593 258.44H292.83L293.501 265.04H283.13L282.593 258.44ZM297.926 258.44H308.118L309.102 265.04H298.731L297.926 258.44ZM313.214 258.44H323.406L324.658 265.04H314.287L313.214 258.44ZM328.502 258.44H338.694L340.214 265.04H329.843L328.502 258.44ZM343.79 258.44H353.982L355.77 265.04H345.399L343.79 258.44Z" fill="#2F2E41" stroke="white" stroke-width="0.5" stroke-miterlimit="10"/>
<path d="M382.813 350.742H121.666C117.687 350.742 114.469 347.616 114.469 343.752H390.01C390.01 347.616 386.791 350.742 382.813 350.742ZM284.29 314.707C284.022 313.144 282.592 311.972 280.983 311.972H223.541C221.887 311.972 220.501 313.144 220.233 314.707L216.657 335.763C216.299 337.761 217.908 339.584 219.965 339.584H284.514C286.615 339.584 288.18 337.761 287.822 335.763L284.29 314.707Z" fill="#D3D3D3"/>
<path d="M161.273 133.316H184.652V135.661H161.273V133.316ZM191.224 150.813H208.076V153.157H191.224V150.813ZM210.713 150.813H221.889V153.157H210.713V150.813ZM161.542 194.836H172.717V197.181H161.542V194.836ZM224.124 150.813H251.169V153.157H224.124V150.813ZM161.542 186.023H178.931V188.367H161.542V186.023ZM185.77 203.563H196.364V205.907H185.77V203.563ZM161.542 203.563H182.551V205.907H161.542V203.563ZM161.542 212.333H173.119V214.677H161.542V212.333ZM189.212 133.316H205.796V135.661H189.212V133.316ZM189.212 159.583H205.796V161.927H189.212V159.583ZM180.897 168.309H188.005V170.654H180.897V168.309ZM173.835 177.21H189.748V179.554H173.835V177.21ZM192.162 177.21H214.156V179.554H192.162V177.21ZM161.542 168.396H178.126V170.741H161.542V168.396ZM161.542 177.21H171.376V179.554H161.542V177.21ZM191.358 168.396H200.656V170.741H191.358V168.396ZM161.855 221.059H171.153V223.404H161.855V221.059ZM161.497 150.813H178.081V153.157H161.497V150.813ZM176.159 194.836H192.743V197.181H176.159V194.836ZM176.383 212.333H192.967V214.677H176.383V212.333ZM205.841 212.333H222.425V214.677H205.841V212.333ZM161.497 159.583H185.144V161.927H161.497V159.583ZM272.312 133.316H288.897V135.661H272.312V133.316ZM213.217 221.059H229.801V223.404H213.217V221.059ZM294.037 133.316H305.123V135.661H294.037V133.316ZM331.632 142.086H342.718V144.431H331.632V142.086ZM210.266 133.316H231.41V135.661H210.266V133.316ZM292.607 142.086H313.751V144.431H292.607V142.086ZM266.68 150.813H287.824V153.157H266.68V150.813ZM239.188 159.583H260.332V161.927H239.188V159.583ZM290.461 150.813H305.481V153.157H290.461V150.813ZM247.011 133.316H268.155V135.661H247.011V133.316ZM222.917 159.583H235.299V161.927H222.917V159.583ZM213.217 194.967H225.599V197.311H213.217V194.967ZM235.299 133.316H243.033V135.661H235.299V133.316ZM210.266 159.583H218V161.927H210.266V159.583ZM318.847 142.086H326.58V144.431H318.847V142.086ZM161.273 142.086H173.388V144.431H161.273V142.086ZM193.593 186.066H203.159V188.411H193.593V186.066ZM176.383 142.086H180.272V144.431H176.383V142.086ZM256.577 142.086H288.897V144.431H256.577V142.086ZM225.599 212.333H257.919V214.677H225.599V212.333ZM183.133 142.086H187.111V144.431H183.133V142.086ZM243.033 142.086H253.582V144.431H243.033V142.086ZM253.627 150.813H264.177V153.157H253.627V150.813ZM199.27 221.059H209.819V223.404H199.27V221.059ZM217.776 142.086H240.261V144.431H217.776V142.086ZM196.811 194.967H209.954V197.311H196.811V194.967ZM196.007 212.333H202.578V214.677H196.007V212.333ZM206.824 142.086H214.558V144.431H206.824V142.086ZM180.808 150.813H188.541V153.157H180.808V150.813ZM182.328 186.066H190.061V188.411H182.328V186.066ZM190.419 142.086H203.919V144.431H190.419V142.086Z" fill="#D9E5FF"/>
<path d="M303.604 159.67C303.604 159.67 307.538 166.139 309.192 167.181C311.427 168.613 310.041 170.046 308.968 170.09C307.895 170.09 302.442 170.48 301.235 169.134C300.028 167.789 299.447 163.838 298.329 162.796C297.212 161.754 296.05 157.629 298.866 156.631C301.324 155.719 303.604 159.67 303.604 159.67Z" fill="#2F2E41"/>
<path d="M301.859 156.847C301.859 156.847 306.374 164.445 307.134 165.531C307.894 166.659 305.659 166.659 304.273 166.138C302.887 165.617 299.4 160.19 298.909 159.192C298.328 158.02 298.819 156.674 298.819 156.674L301.859 156.847Z" fill="#FFB6B6"/>
<path d="M297.301 160.886L298.374 168.657L298.91 168.7L298.731 163.1L297.301 160.886ZM264.579 159.67C264.579 159.67 268.513 166.139 270.167 167.181C272.402 168.614 271.016 170.046 269.943 170.09C268.87 170.09 263.417 170.48 262.21 169.134C261.003 167.789 260.422 163.838 259.304 162.796C258.187 161.754 256.98 157.499 259.841 156.631C262.344 155.849 264.579 159.67 264.579 159.67Z" fill="#2F2E41"/>
<path d="M263.102 156.847C263.102 156.847 267.349 164.402 268.153 165.531C268.913 166.659 266.678 166.659 265.292 166.138C263.907 165.617 260.42 160.19 259.928 159.192C259.347 158.02 259.839 156.674 259.839 156.674L263.102 156.847Z" fill="#FFB6B6"/>
<path d="M258.32 160.886L259.348 168.657L259.93 168.701L259.751 163.1L258.32 160.886Z" fill="#2F2E41"/>
<path d="M247.145 100.755L282.727 116.515C282.727 116.515 286.706 117.774 287.153 122.072C288.538 135.444 298.82 156.631 298.82 156.631C302.128 158.194 301.859 156.848 301.859 156.848C299.758 150.335 297.255 123.591 296.316 112.868C296.138 110.61 296.003 109.047 295.959 108.526C295.959 108.179 295.556 107.745 294.886 107.224C290.013 103.36 269.898 95.4146 269.898 95.4146C254.923 95.0239 247.145 100.755 247.145 100.755Z" fill="#FFB6B6"/>
<path d="M240.44 107.528C241.557 116.862 255.281 115.82 255.281 115.82H271.91C271.91 115.82 267.529 125.285 265.83 133.23C264.042 141.696 259.796 156.631 259.796 156.631C259.796 156.631 260.064 157.152 263.103 156.848C263.103 156.848 276.156 131.58 281.163 125.198C282.236 123.852 285.32 116.385 285.857 111.956C286.035 110.48 285.946 109.308 285.365 108.831C284.784 108.353 283.443 107.485 281.699 106.399C276.469 103.187 267.44 98.2806 262.388 97.1952C255.638 95.719 244.955 92.9404 244.955 92.9404C244.955 92.9404 239.322 98.1937 240.44 107.528Z" fill="#FFB6B6"/>
<path d="M251.75 35.5446C251.75 35.5446 249.247 30.9425 250.454 26.08C251.661 21.174 256.355 16.3114 263.194 18.569C270.033 20.8267 275.576 25.9497 271.464 31.9411C267.351 37.889 275.174 40.6242 273.162 43.4462C271.151 46.2682 271.911 49.2639 272.76 49.9151C273.609 50.5664 276.336 52.9108 276.023 55.7328C275.71 58.5114 262.747 47.6141 262.747 47.6141C262.747 47.6141 255.729 33.7645 251.75 35.5446Z" fill="#2F2E41"/>
<path d="M272.626 94.2426C272.626 94.2426 271.598 99.1052 245 92.9836C245 92.9836 253.896 90.1181 272.626 94.2426Z" fill="#EB4747"/>
<path d="M244.686 94.329C244.284 95.1104 243.882 95.8485 243.435 96.63C253.135 96.8905 262.88 97.1944 272.58 97.4549C271.06 92.4621 271.552 85.6893 271.82 80.5662C272.133 74.2709 275.709 69.9294 275.352 63.5907C277.274 63.8946 277.587 63.938 279.509 64.2419C276.559 56.0798 275.575 52.0421 266.411 48.9162C263.416 47.8742 261.494 47.7006 258.276 47.9611C247.681 48.8294 244.507 48.9162 239.277 58.2506C247.413 59.5096 246.072 62.3316 248.531 70.2333C249.738 74.0539 250.989 78.352 250.363 82.3897C249.738 86.3405 244.686 90.7255 244.686 94.329Z" fill="white"/>
<path d="M261.585 50.8705C257.249 50.0891 258.187 47.7446 258.187 47.7446C258.187 47.7446 258.366 46.4421 258.455 44.7489C258.455 44.3148 258.5 43.8806 258.5 43.403C258.5 42.7084 258.455 42.0137 258.366 41.3191C258.008 38.4971 266.234 40.1903 266.234 40.1903C266.234 40.1903 265.742 45.9212 266.904 47.6144C268.022 49.351 265.921 51.6954 261.585 50.8705Z" fill="#FFB6B6"/>
<path d="M253.315 47.7448C253.315 47.7448 262.076 57.5568 265.295 59.8144C265.295 59.8144 269.005 56.5582 266.725 47.9619C266.725 47.9619 262.523 45.878 253.315 47.7448ZM253.583 24.1267C253.583 24.1267 249.023 32.6362 253.538 40.6681C258.053 48.7 266.904 37.1514 267.44 35.8055C268.021 34.4597 271.061 26.7751 265.026 24.4741C258.992 22.1296 254.879 21.8257 253.583 24.1267Z" fill="#FFB6B6"/>
<path d="M262.342 41.5361C262.342 41.5361 261.538 43.2293 258.453 44.7489C258.453 44.3147 258.498 43.8806 258.498 43.403C258.498 43.403 260.599 43.1859 262.342 41.5361Z" fill="#FCD2B1"/>
<path d="M216.435 86.6885C216.435 86.6885 214.289 87.6002 213.261 87.2095C212.233 86.7753 210.668 86.6885 210.177 86.6885C209.506 86.6885 207.405 85.9504 207.45 86.7753C207.495 87.5568 210.847 88.1212 211.518 88.3817C212.188 88.6422 209.461 90.0749 209.193 90.7262C208.925 91.3774 212.054 95.6321 213.798 94.4165C215.541 93.2009 216.48 90.7696 216.837 90.5959C217.195 90.4223 218.134 89.771 218.134 89.771L216.435 86.6885Z" fill="#FFB6B6"/>
<path d="M209.552 90.335C209.552 90.335 204.501 94.416 204.412 94.9804C204.322 95.5448 204.59 95.8053 205.082 95.4146C205.574 95.0673 210.089 91.594 210.089 91.594C210.089 91.594 205.037 97.4117 204.859 97.8459C204.769 98.1064 205.261 98.6274 205.529 98.4537C205.797 98.28 211.206 92.8097 211.206 92.8097C211.206 92.8097 206.468 98.2366 206.468 98.6708C206.423 99.0181 207.004 99.4088 207.407 99.0181C207.809 98.6273 212.503 93.8516 212.503 93.8516C212.503 93.8516 209.329 98.0195 209.552 98.4103C209.686 98.6274 210.089 99.1049 210.849 98.0195C211.609 96.9341 213.754 94.5029 213.754 94.5029L209.552 90.335Z" fill="#FFB6B6"/>
<path d="M270.166 115.777H255.281C255.281 115.777 241.557 116.862 240.44 107.485C239.322 98.1503 244.955 92.9404 244.955 92.9404C244.955 92.9404 252.196 94.8073 258.544 96.2834C261.718 95.6322 265.517 95.198 269.988 95.3283C269.988 95.3283 296.809 103.925 296.004 108.483C296.004 108.527 284.784 102.709 270.166 115.777Z" fill="#2F2E41"/>
<path d="M260.465 99.6256L288.895 99.1914L274.546 106.268L260.465 99.6256Z" fill="#F2F2F2"/>
<path d="M269.315 96.0659C269.315 96.0659 262.923 98.4537 255.1 96.283L254.742 93.4609L270.88 94.3293L269.315 96.0659Z" fill="white"/>
<path d="M274.546 106.269L260.465 100.972V99.626L275.663 104.923L274.546 106.269Z" fill="#D3D3D3"/>
<path d="M269.182 97.412C269.093 98.4106 270.166 99.1487 271.149 98.7579L272.803 98.0633C273.295 97.8462 273.608 97.3686 273.518 96.8476C272.848 92.6797 271.373 76.4423 273.518 73.6203C274.323 72.5783 274.815 71.6666 275.083 70.8851C276.513 74.4452 278.257 79.0472 278.972 81.5219L292.382 98.8882L296.897 100.017C291.265 86.862 286.75 79.9155 286.75 79.9155C285.856 77.6145 283.353 70.668 281.118 64.503C279.687 60.5956 278.436 56.9921 277.72 55.0818C277.363 54.0832 276.692 53.2583 275.753 52.7373C273.652 51.5217 270.21 49.6114 267.081 48.1353H267.037C266.947 48.0919 266.858 48.0484 266.724 48.005C272.714 56.7316 270.389 81.5219 269.182 97.412C269.182 97.3686 269.182 97.3686 269.182 97.412ZM247.01 48.6997C245.088 49.0036 240.35 53.4754 237.846 57.9906C234.985 63.1571 232.035 69.0182 229.845 70.9285C225.822 74.4886 214.512 87.0357 213.976 86.7318C213.752 86.6015 217.06 90.4655 217.507 90.6392C217.731 90.726 236.058 75.2701 237.846 72.9256C239.5 70.7114 243.971 61.3336 245.312 61.5507C245.401 61.7678 247.055 65.1976 248.575 70.1904C248.619 70.2773 248.619 70.3641 248.664 70.4509C249.737 73.9242 249.648 77.7447 249.066 81.9995C248.619 85.2122 246.161 90.4655 244.686 93.0271C244.507 93.331 244.552 93.9388 244.73 94.3729C244.865 94.6334 244.999 94.8505 245.222 94.9373L250.631 96.891L251.883 97.3252C252.777 97.6725 253.76 97.4989 254.475 96.9779C255.057 96.5871 255.504 95.9359 255.593 95.1544C256.8 86.2108 258.32 77.0501 259.527 73.6203C264.846 58.5116 257.47 47.1367 257.47 47.1367C257.47 47.1367 248.709 48.0919 247.01 48.6997Z" fill="#407BFF"/>
<path d="M274.547 106.269L282.996 83.8662L310.219 84.3004L302.173 104.966L274.547 106.269Z" fill="#D3D3D3"/>
<path d="M291.712 93.7654C290.863 95.3718 291.131 97.1518 292.293 97.6728C293.455 98.2372 295.02 97.3689 295.869 95.7625C296.719 94.1561 296.45 92.3761 295.288 91.8551C294.126 91.2907 292.517 92.159 291.712 93.7654Z" fill="#F2F0F0"/>
<path d="M275.173 51.4349C273.161 48.4826 271.731 46.1382 271.552 41.9269C271.418 39.1483 270.792 35.3711 268.825 33.5042C270.881 28.2944 268.467 26.7314 267.484 25.0382C266.277 22.9108 257.337 17.7878 253.805 23.1713C250.274 28.5114 251.525 34.1121 251.525 34.1121C251.883 31.1598 255.012 27.1656 255.012 27.1656C255.504 30.2481 262.075 35.2843 264.936 37.3248C264.891 37.3682 264.846 37.4551 264.846 37.4985C263.237 39.7561 265.249 42.0137 265.606 44.4016C265.964 46.7894 258.856 53.2149 266.769 56.4277C274.681 59.6839 277.184 54.3437 275.173 51.4349ZM131.278 304.331C131.278 304.331 131.099 306.154 122.337 306.154C113.576 306.154 100.836 303.94 100.836 303.94L121.175 302.03C121.175 302.03 128.998 301.639 131.278 304.331Z" fill="#2F2E41"/>
<path d="M108.97 304.982C104.008 304.982 101.907 307.456 99.94 308.238C97.9731 309.019 96.0063 310.192 96.0063 310.148C97.1238 308.021 98.6884 307.977 99.493 307.283C100.298 306.588 100.074 306.935 98.3308 306.805C97.3473 306.718 95.5592 308.498 94.3076 309.497C93.1901 310.322 92.5195 310.409 92.5195 310.409C92.5195 310.409 93.8159 308.629 95.4251 307.196C97.392 305.459 99.8506 304.027 100.432 303.766C101.505 303.332 104.813 303.245 107.137 303.549C109.819 303.896 112.546 304.982 108.97 304.982Z" fill="#0E538C"/>
<path d="M100.747 303.853C100.747 303.853 96.9477 304.808 96.2772 305.329C95.8302 305.676 93.8633 307.717 93.8633 307.717C93.8633 307.717 95.2937 307.5 96.0984 306.718C96.9477 305.893 100.747 303.853 100.747 303.853ZM124.082 300.597C124.082 300.597 133.648 301.204 132.977 306.935C132.62 310.192 130.429 311.32 127.524 311.06C122.159 310.626 116.08 309.844 116.08 309.844L113.353 300.944L124.082 300.597Z" fill="#0E538C"/>
<path d="M126.093 301.378L135.48 271.986C135.48 271.986 136.866 267.688 139.146 268.469C142.409 269.642 140.8 273.158 140.532 275.242C139.951 279.497 140.353 281.364 137.313 291.61C135.436 297.949 133.826 305.242 132.217 309.41C131.1 312.276 129.177 308.151 126.272 307.022C120.818 304.895 126.093 301.378 126.093 301.378ZM126.808 256.009C128.641 261.132 134.318 263.78 139.548 261.914C144.734 260.047 147.505 254.359 145.672 249.236C143.84 244.113 138.162 241.465 132.932 243.332C127.747 245.199 124.976 250.886 126.808 256.009Z" fill="#0E538C"/>
<path d="M116.524 256.486C119.385 260.654 125.107 261.696 129.264 258.831L128.683 253.925C132.84 251.016 133.869 245.285 131.008 241.117L129.041 238.295C126.18 234.127 120.458 233.085 116.301 235.951L114.423 237.253C110.266 240.162 109.238 245.893 112.099 250.061L116.524 256.486Z" fill="#0E538C"/>
<path d="M112.772 242.811C113.264 243.505 113.8 244.156 114.426 244.808C118.538 249.149 124.037 250.799 127.523 249.019C129.133 251.146 130.965 252.84 132.619 254.142C134.542 255.662 139.459 256.269 139.459 256.269C142.32 259.308 131.591 277.065 130.831 276.979C129.267 276.848 127.255 267.036 128.73 263.476C129.401 261.87 130.474 259.96 130.161 259.091C129.043 256.096 127.479 256.617 127.479 256.617C127.479 256.617 125.422 258.961 123.813 258.874C122.159 258.744 119.298 256.226 119.164 256.183C118.673 255.792 118.226 255.314 117.823 254.75L113.532 248.498C112.414 246.761 112.146 244.677 112.772 242.811Z" fill="#FFB6B6"/>
<path d="M145.58 317.616C145.58 317.616 142.094 321.697 141.021 322.131C139.59 322.739 135.21 321.437 135.21 321.437C135.21 321.437 134.047 302.725 132.706 295.431C131.365 288.137 129.398 286.227 129.309 283.926C129.175 280.235 126.001 278.759 126.538 275.894C127.074 273.028 128.013 262.782 128.326 264.128C131.052 275.763 134.405 266.082 135.165 264.562C135.567 263.737 145.58 317.616 145.58 317.616Z" fill="#F2F0F0"/>
<path d="M129.715 260.655C129.715 260.655 125.468 265.17 125.781 266.95C126.05 268.73 123.949 274.287 126.05 282.015C128.419 290.829 129.67 296.82 130.117 302.594C130.564 308.369 128.553 313.665 129.357 320.742C129.983 326.299 131.28 326.603 131.28 326.603C131.28 326.603 133.828 327.211 135.616 325.04C137.404 322.913 134.722 303.984 133.828 299.295C132.934 294.563 130.073 283.535 129.313 280.279C128.374 276.285 128.553 272.203 128.598 271.031C128.821 266.907 129.357 264.345 129.804 262.782C129.849 262.565 130.073 260.134 129.715 260.655ZM137.136 265.952C139.46 272.464 146.702 275.807 153.318 273.419C159.933 271.031 163.42 263.824 161.096 257.312C158.771 250.8 151.529 247.457 144.914 249.844C138.298 252.189 134.811 259.439 137.136 265.952Z" fill="#0E538C"/>
<path d="M114.382 377.877L116.751 396.242L106.47 400.974L100.793 402.19L110.896 394.592L107.588 378.007L114.382 377.877Z" fill="#FFB6B6"/>
<path d="M117.421 399.02L115.186 399.585L113.666 398.239L105.441 402.233L98.1544 403.926C98.1544 403.926 98.065 403.362 98.2885 403.058C99.1825 401.886 104.323 399.324 104.323 399.324C104.323 399.324 104.413 401.018 105.128 401.061C105.843 401.104 112.146 397.892 113.621 397.023C116.124 395.504 116.616 394.505 116.795 394.635C117.331 394.896 117.421 399.02 117.421 399.02Z" fill="#2F2E41"/>
<path d="M89.5698 352.349L81.3894 367.978L70.1246 367.457L64.4922 365.851L76.964 363.81L83.7586 350.438L89.5698 352.349Z" fill="#FFB6B6"/>
<path d="M80.7183 370.757L78.4832 370.236L77.7679 368.325L67.6207 368.195L61.5859 366.806C61.5859 366.806 62.3012 366.024 62.7482 365.807C64.0892 365.243 68.8723 364.982 68.8723 364.982C68.8723 364.982 68.3806 366.328 69.0064 366.676C69.6322 367.066 76.6057 367.283 78.3044 367.153C81.2547 366.936 82.104 366.328 82.1934 366.502C82.5063 367.11 80.7183 370.757 80.7183 370.757Z" fill="#2F2E41"/>
<path d="M149.249 305.59L143.169 308.238L143.214 316.357L101.328 309.714C101.328 309.714 97.35 308.455 94.802 314.837C91.1812 323.868 81.9727 351.958 81.9727 351.958L87.7839 358.079L106.067 326.343C106.067 326.343 143.527 344.013 155.865 340.192C160.603 338.716 164.224 330.293 163.553 321.784C163.017 315.098 161.676 308.976 161.676 308.976L149.249 305.59Z" fill="#3B3A4C"/>
<path d="M143.928 340.018L113.933 337.847L116.526 384.389L107.675 384.693L101.148 330.163C101.148 330.163 102.892 322.044 108.614 323.26C114.38 324.519 128.238 335.199 143.928 340.018Z" fill="#2F2E41"/>
<path d="M164.135 351.697C164.135 351.697 148.4 334.548 144.332 324.866C139.459 313.274 139.862 298.73 138.968 293.911C137.314 285.054 135.302 267.862 134.944 265.734C134.542 263.607 135.928 261.219 135.928 261.219C135.928 261.219 134.9 254.793 137.85 255.488C142.097 256.487 146.299 258.744 147.774 259.439C150.545 260.655 156.222 293.043 156.535 294.606C157.698 300.25 161.944 305.373 164.984 310.626C172.136 323.086 173.969 337.804 173.969 337.804C173.969 337.804 173.075 348.571 164.135 351.697Z" fill="#407BFF"/>
<path d="M147.909 306.848C147.909 306.848 147.774 308.932 137.761 308.455C127.748 307.934 113.086 304.678 113.086 304.678L136.286 303.636C136.286 303.636 145.182 303.679 147.909 306.848Z" fill="#FFB6B6"/>
<path d="M120.951 305.806C116.168 305.72 114.112 308.107 112.234 308.846C110.357 309.584 108.435 310.669 108.435 310.669C109.507 308.628 111.027 308.585 111.832 307.934C112.592 307.283 112.413 307.63 110.714 307.456C109.731 307.369 108.032 309.063 106.825 310.018C105.753 310.843 105.082 310.886 105.082 310.886C105.082 310.886 106.334 309.149 107.898 307.76C109.82 306.11 112.145 304.721 112.726 304.504C113.754 304.113 116.928 304.07 119.208 304.417C121.756 304.764 124.393 305.893 120.951 305.806Z" fill="#FFE3CA"/>
<path d="M112.952 304.548C112.952 304.548 109.286 305.416 108.66 305.894C108.213 306.241 106.336 308.195 106.336 308.195C106.336 308.195 107.677 307.978 108.482 307.24C109.286 306.545 112.952 304.548 112.952 304.548Z" fill="#FFE3CA"/>
<path d="M139.906 304.548L154.747 296.95C154.747 296.95 154.792 306.154 154.881 309.671C154.971 313.188 156.491 318.137 153.63 318.875C150.769 319.613 149.294 319.222 152.244 320.916C155.194 322.565 154.524 324.302 153.406 325.735C152.289 327.167 157.161 341.755 155.999 342.58C151.395 336.936 146.433 329.946 144.287 324.866C141.56 318.267 140.487 310.713 139.906 304.548Z" fill="#0E538C"/>
<path d="M144.687 300.858L144.106 271.509C144.106 271.509 144.151 262.348 144.329 259.656C144.508 256.878 149.381 260.134 149.381 260.134C149.381 260.134 156.22 269.121 156.354 290.785C156.444 305.286 155.639 312.841 148.755 312.233C142.363 311.668 135.076 310.713 135.076 310.713L131.902 302.681L144.687 300.858Z" fill="#407BFF"/>
<path d="M143.168 316.357L92.0742 310.148L92.2083 309.106L143.302 315.315L143.168 316.357Z" fill="#D3D3D3"/>
<path d="M120.774 312.536C120.684 313.361 120.014 313.969 119.298 313.882L93.1033 310.713C92.3881 310.626 91.494 309.975 90.8682 307.804L80.7656 282.406C80.8997 281.364 81.7491 280.843 82.4643 281.103L109.241 285.185C109.956 285.445 110.448 286.053 110.716 287.182L120.774 312.536Z" fill="#D3D3D3"/>
<path d="M117.463 313.231L117.732 313.274L143.301 316.4C142.318 316.791 140.753 316.921 139.01 316.704L117.598 314.099L117.329 314.056L95.9172 311.451C94.1739 311.234 92.6987 310.713 91.8047 310.148L117.463 313.231Z" fill="#D3D3D3"/>
<path d="M144.687 300.857L144.106 271.508C144.106 271.508 144.553 269.034 145.447 266.819C145.671 270.032 147.191 293.173 147.37 296.212C147.593 299.511 150.365 299.859 150.946 300.944C151.572 301.986 151.035 302.203 148.979 301.812C146.967 301.378 147.683 301.726 148.13 302.767C148.577 303.853 147.459 303.549 143.525 302.16C140.664 301.161 135.166 302.16 132.395 302.767L144.687 300.857Z" fill="#0E538C"/>
<path d="M321.351 228.831C316.433 230.09 307.359 234.518 305.437 242.116C302.576 253.534 308.298 270.249 299.268 286.66C296.362 291.87 349.2 298.904 349.2 298.904L359.392 241.248C359.392 241.248 346.652 228.744 344.059 227.876C338.65 226.139 331.185 226.313 321.351 228.831Z" fill="#79A3FF"/>
<path d="M359.436 241.292C361.269 245.894 365.918 273.289 360.732 279.758C360.151 280.496 363.414 281.668 362.833 285.055C362.744 285.619 361.76 288.354 361.76 288.354L357.558 289.44L348.395 279.15C348.395 279.15 352.105 273.549 356.977 252.319C358.408 246.067 359.034 240.25 359.436 241.292Z" fill="#407BFF"/>
<path d="M324.746 274.027C324.746 274.027 329.172 285.358 339.855 288.397C341.688 288.918 342.85 290.915 341.956 291.567C340.794 292.392 339.274 292.565 336.592 292.565C331.004 292.565 323.405 290.829 318.175 285.706C310.397 278.151 307.938 274.678 308.743 270.901C309.458 267.037 324.746 274.027 324.746 274.027Z" fill="#FFB6B6"/>
<path d="M306.954 238.295C304.675 242.029 303.378 248.021 303.423 256.617C303.423 263.259 309.145 274.157 309.994 277.5C310.128 278.064 310.486 280.452 310.486 280.452L316.789 286.704L329.439 278.064L325.595 272.116L324.433 272.247C324.433 272.247 323.718 268.947 323.896 267.688C324.075 266.429 320.41 249.28 318.577 238.295C317.549 231.913 309.189 234.605 306.954 238.295Z" fill="#407BFF"/>
<path d="M318.31 271.986L322.021 270.858L323.541 270.467C323.63 271.509 324.524 272.203 324.524 272.203L321.618 272.551L318.266 273.593L314.332 276.328L318.31 271.986Z" fill="#0E538C"/>
<path d="M339.051 288.354L345.488 286.574C345.488 286.574 347.321 289.049 346.964 289.657C346.606 290.265 346.964 293.911 346.964 293.911L343.835 296.603L341.287 295.735C341.287 295.735 341.108 294.606 341.957 294.519C342.851 294.389 341.376 293.781 340.929 293.521C340.482 293.217 336.772 291.307 339.051 288.354Z" fill="#FFB6B6"/>
<path d="M329.128 228.267C328.413 230.307 329.485 232.608 331.542 233.303L335.207 234.606C337.263 235.344 339.499 234.215 340.214 232.174L343.477 222.796C344.192 220.756 343.119 218.455 341.063 217.717L337.398 216.414C335.341 215.676 333.106 216.805 332.391 218.846L329.128 228.267Z" fill="#FFB6B6"/>
<path d="M345.129 236.516C344.772 237.861 343.341 238.686 342 238.296L330.959 235.213C329.618 234.822 328.813 233.433 329.171 232.044L333.686 215.589C334.043 214.243 335.474 213.418 336.815 213.809L347.856 216.848C349.197 217.239 350.002 218.628 349.644 220.018L345.129 236.516Z" fill="#FFB6B6"/>
<path d="M350.853 218.368C350.942 218.281 349.825 217.065 350.406 214.678C351.166 211.465 348.707 210.162 346.874 210.119C345.801 210.076 342.181 211.769 340.258 212.333C338.336 212.898 338.515 212.16 335.028 211.552C332.704 211.118 332.167 212.377 331.363 214.113C330.558 215.893 330.469 222.666 330.469 222.666C330.782 223.1 331.273 223.448 331.586 223.1C331.899 222.753 333.151 217.326 334.179 215.72C335.162 214.113 339.186 216.675 341.376 217.934C343.522 219.193 345.444 219.41 348.886 218.715C349.288 219.149 349.646 219.627 349.646 219.844C349.646 220.278 348.662 223.361 348.662 223.361C348.662 223.361 350.585 222.189 351.121 221.277C351.389 220.973 351.479 219.497 350.853 218.368Z" fill="#2F2E41"/>
<path d="M332.658 228.614C332.524 229.048 332.076 229.352 331.629 229.221L329.26 228.57C328.813 228.44 328.545 227.962 328.679 227.528L329.886 223.143C330.02 222.709 330.467 222.405 330.914 222.535L333.283 223.187C333.73 223.317 333.999 223.794 333.865 224.229L332.658 228.614Z" fill="#FFB6B6"/>
<path d="M331.183 224.446C331.183 224.446 329.395 230.915 328.814 233.086C328.278 235.04 327.875 239.555 338.827 242.594C345.309 244.374 346.382 239.512 346.829 237.949C347.142 236.733 346.784 232.782 346.292 231.914C346.292 231.87 345.577 234.606 345.577 234.606C345.577 234.606 344.951 231.61 341.867 230.785C336.905 229.396 334.938 232.044 332.792 231.349C331.094 230.785 330.602 227.659 331.183 224.446Z" fill="#2F2E41"/>
<path d="M338.651 234.389L342.048 235.344C342.495 235.474 342.987 235.214 343.076 234.736L343.21 234.258L338.159 232.869L338.025 233.347C337.936 233.824 338.204 234.258 338.651 234.389Z" fill="#FFB6B6"/>
<path d="M392.516 300.163C390.951 304.548 363.415 320.655 354.162 319.7L326.313 321.046C302.665 318.137 291.445 281.147 291.445 281.147C292.384 271.856 315.718 285.315 324.033 289.483C337.175 296.082 345.534 296.429 345.534 296.429C354.341 297.341 364.533 290.481 375.663 290.264C387.867 289.96 395.019 293.26 392.516 300.163Z" fill="#2F2E41"/>
<path d="M331.988 295.734C331.988 295.691 331.988 295.691 331.988 295.734V294.519L379.864 293.65V294.866L379.73 295.083C379.149 296.125 378.031 296.299 376.779 296.342L335.117 297.124C333.866 297.167 332.748 296.993 332.122 295.995L331.988 295.734Z" fill="#D3D3D3"/>
<path d="M343.523 295.691L343.389 295.908C343.21 296.169 342.987 296.386 342.718 296.516L335.432 296.646C334.225 296.69 333.152 296.559 332.526 295.734L332.392 295.561L332.348 295.517V294.953L343.434 294.736L343.523 295.691ZM350.005 295.257L373.92 294.823V293.998L349.96 294.475L350.005 295.257ZM343.791 294.258L349.558 270.467C349.692 269.859 350.318 269.338 350.944 269.294L384.559 268.687C385.185 268.687 385.543 269.164 385.409 269.815L379.642 293.607L343.791 294.258Z" fill="#D3D3D3"/>
<path d="M322.109 327.168C325.417 327.732 327.965 323.868 327.965 323.868L336.547 317.095L334.715 312.493L317.996 320.047C317.996 320.047 318.756 326.603 322.109 327.168Z" fill="#FFB6B6"/>
<path d="M327.921 323.607C327.921 323.607 327.921 323.998 327.295 325.778C326.669 327.558 325.865 328.166 325.06 328.426C321.842 329.381 319.562 328.904 311.873 330.38C304.184 331.856 301.86 330.727 299.625 327.167C297.39 323.607 299.714 320.785 303.469 320.524C308.878 320.134 311.918 320.741 314.734 320.307C317.684 319.873 317.863 319.178 319.606 318.093C321.216 317.095 322.736 323.086 321.216 324.475C319.83 325.691 326.803 325.864 327.921 323.607Z" fill="#2F2E41"/>
<path d="M326.311 327.037C323.137 327.992 320.813 327.515 313.124 328.991C305.436 330.467 303.111 329.338 300.876 325.778C299.848 324.128 299.803 322.652 300.384 321.523C298.686 322.696 298.105 324.736 299.624 327.167C301.859 330.728 304.184 331.856 311.873 330.38C319.561 328.904 321.886 329.382 325.06 328.427C325.685 328.253 326.311 327.819 326.848 326.82C326.669 326.907 326.49 326.994 326.311 327.037Z" fill="white"/>
<path d="M327.921 323.737V323.65C327.921 323.694 327.877 323.737 327.832 323.781C327.877 323.737 327.921 323.737 327.921 323.737Z" fill="#E9D6B8"/>
<path d="M311.335 326.386C311.112 326.473 310.888 325.995 310.799 325.344C310.665 323.998 310.352 322.695 309.905 321.35C309.681 320.698 309.681 320.134 309.949 320.047C310.218 319.96 310.665 320.438 310.843 321.089C311.29 322.392 311.559 323.737 311.693 325.04C311.782 325.691 311.559 326.299 311.335 326.386ZM313.704 325.952C313.436 325.995 313.213 325.561 313.123 324.953C312.989 323.694 312.676 322.435 312.229 321.219C312.006 320.611 312.006 320.09 312.318 320.047C312.587 320.004 313.034 320.481 313.257 321.089C313.66 322.305 313.972 323.564 314.107 324.779C314.151 325.387 313.972 325.908 313.704 325.952ZM316.208 325.865C315.939 325.908 315.671 325.431 315.582 324.779C315.358 323.477 315.045 322.218 314.554 320.915C314.33 320.264 314.33 319.743 314.598 319.743C314.911 319.743 315.358 320.221 315.582 320.872C316.073 322.131 316.386 323.434 316.565 324.693C316.655 325.3 316.476 325.821 316.208 325.865Z" fill="white"/>
<path d="M322.691 316.096C322.691 316.096 381.564 291.74 384.916 291.697C396.27 291.61 393.678 303.159 387.911 308.629C381.117 315.054 329.441 326.82 329.441 326.82L322.691 316.096Z" fill="#3B3A4C"/>
<path d="M346.026 320.351L329.934 304.982L336.818 298.166L354.341 316.748L346.026 320.351Z" fill="#FFB6B6"/>
<path d="M349.332 308.282C349.332 308.282 308.43 270.553 305.703 269.425C296.36 265.604 290.594 275.98 290.907 279.584C291.354 284.229 332.882 322.001 332.882 322.001L349.332 308.282Z" fill="#3B3A4C"/>
<path d="M373.562 321.524C374.5 322.392 374.679 325.04 374.679 325.04C374.679 325.04 361.045 330.25 356.262 330.337C355.011 330.38 352.775 329.859 350.63 329.252C350.272 329.165 349.423 328.21 349.065 328.123C348.395 327.949 348.261 328.557 347.724 328.383C346.294 327.906 345.221 327.515 345.176 327.428C342.271 321.263 343.254 318.224 343.254 318.224C343.254 318.224 349.512 320.047 348.439 318.615C346.16 315.576 352.731 312.493 354.161 314.099C360.062 320.568 370.79 318.962 373.562 321.524Z" fill="#2F2E41"/>
<path d="M374.319 322.826C370.118 324.519 361.311 327.949 359.568 328.079C352.371 328.6 347.364 326.039 344.012 324.519C344.325 325.388 344.682 326.386 345.174 327.428C345.219 327.515 346.247 327.906 347.722 328.383C348.303 328.557 348.437 327.906 349.063 328.123C349.421 328.21 350.225 329.165 350.628 329.252C352.773 329.859 355.008 330.337 356.26 330.337C361.043 330.25 374.677 325.04 374.677 325.04C374.677 325.04 374.677 323.825 374.319 322.826ZM364.709 318.832C364.843 319.092 364.306 319.353 363.546 319.526C361.982 319.83 360.462 320.308 358.942 320.916C358.182 321.22 357.512 321.306 357.422 321.046C357.333 320.785 357.825 320.308 358.584 320.004C360.06 319.396 361.624 318.962 363.144 318.658C363.859 318.441 364.574 318.571 364.709 318.832ZM361.624 317.746C361.758 318.007 361.222 318.354 360.462 318.571C358.942 319.005 357.467 319.613 355.992 320.351C355.277 320.699 354.606 320.829 354.517 320.568C354.427 320.308 354.919 319.744 355.634 319.396C357.065 318.702 358.54 318.094 360.06 317.703C360.82 317.399 361.535 317.486 361.624 317.746ZM358.674 316.791C358.763 317.052 358.272 317.442 357.556 317.703C356.081 318.267 354.651 318.962 353.265 319.787C352.594 320.221 351.969 320.351 351.879 320.047C351.79 319.787 352.237 319.179 352.952 318.745C354.338 317.92 355.768 317.225 357.199 316.704C357.914 316.487 358.584 316.531 358.674 316.791Z" fill="white"/>
</svg>
